<svg width="102" height="50" viewBox="0 0 102 50" fill="none" xmlns="http://www.w3.org/2000/svg">
<path d="M22.25 45.1536C22.2145 44.6285 22.2899 44.1018 22.4714 43.6078C22.6528 43.1138 22.9362 42.6635 23.3031 42.2862C23.67 41.9089 24.1122 41.6131 24.601 41.4179C25.0898 41.2228 25.6141 41.1327 26.14 41.1536C26.9303 41.0863 27.7188 41.3017 28.3652 41.7613C29.0116 42.2209 29.474 42.895 29.67 43.6635H28.67C28.4734 43.1498 28.1184 42.712 27.6563 42.4135C27.1942 42.1151 26.6491 41.9715 26.1 42.0036C25.2976 42.0672 24.5486 42.4308 24.0024 43.022C23.4561 43.6133 23.1528 44.3886 23.1528 45.1936C23.1528 45.9985 23.4561 46.7739 24.0024 47.3651C24.5486 47.9563 25.2976 48.32 26.1 48.3835C26.4492 48.4166 26.8014 48.3775 27.1348 48.2687C27.4682 48.1599 27.7758 47.9838 28.0383 47.7513C28.3008 47.5188 28.5128 47.2348 28.661 46.9169C28.8092 46.5991 28.8906 46.2542 28.9 45.9036H28.98H25.46V45.1436H29.8C29.8114 45.33 29.8114 45.5171 29.8 45.7036C29.816 46.19 29.7286 46.6744 29.5436 47.1246C29.3586 47.5748 29.0801 47.9806 28.7266 48.3152C28.3731 48.6497 27.9526 48.9055 27.493 49.0656C27.0333 49.2256 26.5449 49.2863 26.06 49.2436C25.5309 49.272 25.0017 49.1874 24.5078 48.9953C24.014 48.8032 23.5667 48.5081 23.1958 48.1297C22.8249 47.7512 22.5389 47.2981 22.3569 46.8004C22.1748 46.3028 22.1009 45.772 22.14 45.2436M31.23 41.3136H36.72V42.1536H32.25V44.8235H36.49V45.6236H32.25V48.3036H36.82V49.1436H31.33L31.23 41.3136ZM69.51 41.3136V49.1436H68.51L64.11 42.7236V49.1436H63.25V41.3136H64.25L68.65 47.6936V41.3136H69.51ZM77.08 41.3136L74.31 45.3036V49.0036H73.39V45.3036L70.5 41.1736H71.57L73.86 44.6236L76.14 41.1736L77.08 41.3136ZM45.63 41.3136H46.69L49.69 46.0336L52.63 41.3136H53.63V49.1436H52.71V42.6635L49.86 47.2236H49.42L46.53 42.6635V49.1436H45.61L45.63 41.3136ZM41.76 45.9236C42.0831 45.9607 42.4103 45.9283 42.7198 45.8286C43.0293 45.7288 43.3139 45.564 43.5545 45.3452C43.795 45.1265 43.986 44.8587 44.1146 44.5601C44.2432 44.2614 44.3064 43.9387 44.3 43.6136C44.2996 43.2855 44.2296 42.9613 44.0946 42.6623C43.9597 42.3633 43.7629 42.0963 43.5172 41.8789C43.2715 41.6616 42.9825 41.4988 42.6692 41.4013C42.356 41.3039 42.0257 41.274 41.7 41.3136H38.25V49.1436H39.25V42.1436H41.74C42.74 42.1436 43.46 42.6836 43.46 43.6436C43.4668 43.863 43.4253 44.0813 43.3385 44.2829C43.2517 44.4846 43.1217 44.6647 42.9577 44.8106C42.7936 44.9566 42.5996 45.0647 42.3892 45.1274C42.1788 45.1901 41.9571 45.2059 41.74 45.1736H40.12L43.5 49.1736H44.66L41.76 45.9236ZM58.91 41.3136H57.82L54.73 49.1436H55.73L56.18 47.9536L57.18 45.3835L58.39 42.2136L60 46.4336H57.65L57.78 47.1936H60.28L61.03 49.1335H62.03L58.91 41.3136ZM13.09 22.4636H16.64V31.3036C16.64 31.9666 16.9034 32.6025 17.3722 33.0713C17.8411 33.5402 18.477 33.8036 19.14 33.8036C19.8031 33.8036 20.4389 33.5402 20.9078 33.0713C21.3766 32.6025 21.64 31.9666 21.64 31.3036V22.4036H25.25V31.4036C25.25 34.7236 23.06 36.8736 19.25 36.8736C15.6 36.8736 13.25 34.8736 13.25 31.4036L13.09 22.4636ZM79.27 29.6136C79.27 34.5036 77.27 36.9636 74.06 36.9636C70.57 36.9636 68.81 34.2036 68.81 29.5536C68.81 24.7036 70.81 22.2635 74.06 22.2635C77.31 22.2635 79.27 24.9836 79.27 29.6136ZM76.64 29.6136C76.64 26.1136 75.75 24.5036 74.05 24.5036C72.35 24.5036 71.44 26.3536 71.44 29.5536C71.44 33.0936 72.33 34.7036 74.05 34.7036C75.77 34.7036 76.64 32.8536 76.64 29.6136ZM0 36.7736H10.3V33.7136H3.64999V31.0936H9.81V28.2136H3.64999V25.5536H10.4V22.4736H0.100006L0 36.7736ZM40.24 27.1436C40.24 24.4636 38.37 22.4636 34.83 22.4636H27.92V36.7736H31.47V25.5435H34.47C35.67 25.5435 36.47 26.1335 36.47 27.3235C36.4946 27.6079 36.462 27.8943 36.3742 28.1659C36.2864 28.4375 36.1452 28.6888 35.9588 28.9049C35.7724 29.1211 35.5447 29.2978 35.289 29.4247C35.0334 29.5515 34.7549 29.6259 34.47 29.6436H32.84L35.54 36.6436H39.35L36.74 31.9436C37.7984 31.6472 38.7224 30.9951 39.3563 30.0971C39.9902 29.1992 40.2952 28.1101 40.22 27.0135M53.38 29.3736C53.38 31.6736 52.2 33.2536 50.38 33.5936L50.87 36.7635C52.6809 36.6053 54.3593 35.7488 55.55 34.3752C56.7407 33.0016 57.3504 31.2186 57.25 29.4036C57.25 24.9436 54.25 21.9536 49.66 21.9536C45.07 21.9536 42.07 24.9536 42.07 29.4036C41.9608 31.2157 42.56 32.9995 43.741 34.3783C44.9221 35.7571 46.5925 36.6231 48.4 36.7935L48.89 33.6236C47.02 33.2936 45.89 31.7036 45.89 29.4036C45.89 26.8436 47.39 25.1236 49.69 25.1236C51.99 25.1236 53.49 26.8436 53.49 29.4036M99.29 31.0435V22.3636H95.91L89.91 31.3636V33.3036H95.07L95.41 31.0936H92.71L96.8 24.8235V31.1035V33.3036V36.7136H99.25V33.3036H101.25V31.0936L99.29 31.0435ZM62.41 34.4336L64.41 32.6136C66.74 30.4836 68.08 28.5436 68.08 26.4936C68.08 23.9636 66.17 22.1536 63.23 22.1536C60.29 22.1536 58.34 23.9935 58.4 26.8535L60.83 26.9936C60.7753 26.6661 60.7937 26.3306 60.8839 26.0111C60.9742 25.6917 61.134 25.3961 61.3519 25.1457C61.5699 24.8953 61.8405 24.6961 62.1445 24.5627C62.4484 24.4292 62.7781 24.3646 63.11 24.3736C63.4233 24.3463 63.7388 24.3878 64.0344 24.4951C64.33 24.6024 64.5986 24.7729 64.8214 24.9948C65.0443 25.2167 65.216 25.4846 65.3246 25.7797C65.4331 26.0749 65.4759 26.3901 65.45 26.7036C65.45 28.0836 64.37 29.4935 62.71 31.0435C61.64 32.0435 58.48 34.7536 58.48 34.7536V36.6736H68.2V34.4436L62.41 34.4336ZM84.01 34.4336L86.01 32.6136C88.34 30.4836 89.68 28.5436 89.68 26.4936C89.68 23.9636 87.77 22.1536 84.83 22.1536C81.89 22.1536 79.94 23.9935 80 26.8535L82.43 26.9936C82.3753 26.6661 82.3937 26.3306 82.4839 26.0111C82.5742 25.6917 82.734 25.3961 82.9519 25.1457C83.1699 24.8953 83.4405 24.6961 83.7444 24.5627C84.0484 24.4292 84.3781 24.3646 84.71 24.3736C85.0233 24.3463 85.3388 24.3878 85.6344 24.4951C85.93 24.6024 86.1986 24.7729 86.4214 24.9948C86.6443 25.2167 86.816 25.4846 86.9246 25.7797C87.0331 26.0749 87.0759 26.3901 87.05 26.7036C87.05 28.0836 85.97 29.4935 84.31 31.0435C83.24 32.0435 80.08 34.7536 80.08 34.7536V36.6736H89.8V34.4436L84.01 34.4336ZM69.01 7.10355C63.6037 2.51741 56.7445 0 49.655 0C42.5655 0 35.7063 2.51741 30.3 7.10355C29.7867 7.54355 29.2967 8.00024 28.83 8.47357L29.78 9.64355C30.26 9.15689 30.76 8.68688 31.28 8.23355C36.4139 3.88244 42.9253 1.49432 49.655 1.49432C56.3847 1.49432 62.8961 3.88244 68.03 8.23355C68.55 8.68688 69.05 9.15689 69.53 9.64355L70.48 8.47357C70.0067 8.00024 69.5167 7.54355 69.01 7.10355ZM49.65 12.4736C47.2119 12.4546 44.7985 12.9631 42.5754 13.9642C40.3522 14.9653 38.3718 16.4354 36.77 18.2736L37.69 19.4036C39.1648 17.6719 40.9981 16.2812 43.063 15.3275C45.128 14.3739 47.3754 13.8799 49.65 13.8799C51.9246 13.8799 54.172 14.3739 56.237 15.3275C58.3019 16.2812 60.1352 17.6719 61.61 19.4036L62.53 18.2736C60.9282 16.4354 58.9478 14.9653 56.7246 13.9642C54.5015 12.9631 52.0881 12.4546 49.65 12.4736ZM65.58 8.54355L65.31 8.33356C65.1697 8.2164 64.9928 8.15222 64.81 8.15222C64.6272 8.15222 64.4503 8.2164 64.31 8.33356L57.93 12.4636L59.6 13.4036L63.67 10.7736L62.97 13.1335L62.35 12.6736L61.28 13.4336L62.6 14.4336L62.29 15.4936L63.75 16.8336L65.87 9.54355C65.952 9.37117 65.9689 9.17492 65.9174 8.99109C65.8659 8.80725 65.7496 8.64827 65.59 8.54355M55.59 5.67355L58.28 6.37357L58.7 4.73355L55.94 4.01355C55.6451 3.88819 55.3255 3.83134 55.0054 3.84726C54.6853 3.86318 54.373 3.95144 54.092 4.10544C53.8109 4.25944 53.5685 4.47518 53.3828 4.73639C53.1971 4.9976 53.0731 5.2975 53.02 5.61356L51.89 9.96356C51.8615 10.0542 51.8522 10.1498 51.8629 10.2442C51.8736 10.3386 51.9039 10.4297 51.952 10.5117C52 10.5937 52.0647 10.6647 52.1419 10.7201C52.219 10.7756 52.307 10.8142 52.4 10.8336L53.4 11.1035L54.25 8.30356L57.36 9.11356L57.78 7.49356L54.67 6.68356L54.79 6.21356C54.95 5.59356 55.13 5.54356 55.68 5.68356M46.96 3.28357L42.48 4.19357C42.3859 4.20744 42.2957 4.2409 42.2153 4.29181C42.1349 4.34272 42.0661 4.40993 42.0133 4.48911C41.9605 4.56828 41.9249 4.65765 41.9089 4.75143C41.8928 4.84522 41.8966 4.94134 41.92 5.03357L42.81 9.43356C42.8579 9.74516 42.9719 10.0429 43.1444 10.3068C43.3169 10.5707 43.5438 10.7946 43.81 10.9636C44.1606 11.171 44.5628 11.2749 44.97 11.2635C45.2154 11.2611 45.4599 11.2343 45.7 11.1836L48.5 10.6136L48.16 8.95355L45.43 9.50357C44.87 9.61357 44.69 9.55355 44.56 8.92355L44.46 8.45355L47.61 7.81357L47.28 6.17355L44.13 6.81357L43.89 5.63354L47.34 4.93356L46.96 3.28357ZM39.96 12.3535C39.9986 11.9447 39.9529 11.5323 39.8256 11.1418C39.6983 10.7513 39.4922 10.3911 39.22 10.0836L36.43 6.64355L35.05 7.76355L37.62 10.9236C37.7996 11.0871 37.9404 11.2887 38.0321 11.5136C38.1238 11.7385 38.1641 11.9811 38.15 12.2236C38.0766 12.6153 37.8663 12.9681 37.5567 13.2191C37.2471 13.47 36.8584 13.6028 36.46 13.5936C36.01 13.5436 35.74 13.3636 35.3 12.8136L32.73 9.65356L31.25 10.7736L34.05 14.2136C34.2952 14.543 34.6055 14.8187 34.9615 15.0234C35.3176 15.2281 35.7119 15.3575 36.12 15.4036H36.4C37.2059 15.3985 37.9832 15.1039 38.59 14.5735C38.9473 14.3056 39.2466 13.9681 39.47 13.5815C39.6934 13.1948 39.8363 12.7669 39.89 12.3235" fill="#005BAA"/>
</svg>
